<svg width="14" height="14" viewBox="0 0 14 14" fill="none" xmlns="http://www.w3.org/2000/svg">
<path fill-rule="evenodd" clip-rule="evenodd" d="M3.66681 7.33287C3.66681 6.96487 3.96548 6.6662 4.33348 6.6662C4.70148 6.6662 5.00014 6.96487 5.00014 7.33287C5.00014 7.70087 4.70148 7.99953 4.33348 7.99953C3.96548 7.99953 3.66681 7.70087 3.66681 7.33287ZM7.00014 6.6662C6.63214 6.6662 6.33348 6.96487 6.33348 7.33287C6.33348 7.70087 6.63214 7.99953 7.00014 7.99953C7.36814 7.99953 7.66681 7.70087 7.66681 7.33287C7.66681 6.96487 7.36814 6.6662 7.00014 6.6662ZM9.66681 6.6662C9.29881 6.6662 9.00014 6.96487 9.00014 7.33287C9.00014 7.70087 9.29881 7.99953 9.66681 7.99953C10.0348 7.99953 10.3335 7.70087 10.3335 7.33287C10.3335 6.96487 10.0348 6.6662 9.66681 6.6662ZM12.2657 8.19613C11.9277 10.3655 10.1791 12.1648 8.01308 12.5708C6.96708 12.7681 5.90174 12.6555 4.93508 12.2461C4.66108 12.1301 4.37774 12.0715 4.09974 12.0715C3.97308 12.0715 3.84774 12.0835 3.72441 12.1081L1.84974 12.4828L2.22508 10.6048C2.30374 10.2148 2.25574 9.79747 2.08708 9.39814C1.67774 8.43147 1.56574 7.3668 1.76241 6.32013C2.16841 4.15413 3.96708 2.40547 6.13708 2.06747C7.86374 1.7988 9.55241 2.3428 10.7711 3.56147C11.9904 4.7808 12.5351 6.47013 12.2657 8.19613ZM11.7144 2.6188C10.1911 1.09613 8.08441 0.416801 5.93174 0.749468C3.21374 1.17347 0.96041 3.3628 0.451744 6.07413C0.20641 7.37947 0.347744 8.7088 0.859077 9.91747C0.923744 10.0715 0.943744 10.2148 0.91841 10.3435L0.34641 13.2021C0.30241 13.4208 0.371077 13.6468 0.529077 13.8041C0.655077 13.9308 0.825077 13.9995 1.00041 13.9995C1.04374 13.9995 1.08708 13.9955 1.13108 13.9868L3.98641 13.4155C4.15041 13.3841 4.30908 13.4301 4.41508 13.4741C5.62508 13.9855 6.95441 14.1261 8.25841 13.8815C10.9704 13.3728 13.1597 11.1195 13.5837 8.40147C13.9184 6.25013 13.2377 4.14213 11.7144 2.6188Z" fill="#1551E5"/>
</svg>
