<svg width="20" height="18" viewBox="0 0 20 18" fill="none" xmlns="http://www.w3.org/2000/svg">
<path fill-rule="evenodd" clip-rule="evenodd" d="M14.3818 11H6.76379L5.12679 5H17.3818L14.3818 11ZM19.0828 3.948C18.7158 3.354 18.0798 3 17.3818 3H4.58179L3.96479 0.737C3.84579 0.302 3.45079 0 2.99979 0H0.999786C0.446786 0 -0.000213623 0.448 -0.000213623 1C-0.000213623 1.552 0.446786 2 0.999786 2H2.23579L5.03479 12.263C5.15379 12.698 5.54879 13 5.99979 13H14.9998C15.3788 13 15.7248 12.786 15.8948 12.447L19.1708 5.894C19.4838 5.269 19.4498 4.542 19.0828 3.948ZM5.49999 15C4.67199 15 3.99999 15.671 3.99999 16.5C3.99999 17.329 4.67199 18 5.49999 18C6.32799 18 6.99999 17.329 6.99999 16.5C6.99999 15.671 6.32799 15 5.49999 15ZM14 16.5C14 15.671 14.672 15 15.5 15C16.328 15 17 15.671 17 16.5C17 17.329 16.328 18 15.5 18C14.672 18 14 17.329 14 16.5Z" fill="#1551E5"/>
</svg>
