<svg width="20" height="18" viewBox="0 0 20 18" fill="none" xmlns="http://www.w3.org/2000/svg">
<path fill-rule="evenodd" clip-rule="evenodd" d="M14.8818 11H7.2638L5.6268 5H17.8818L14.8818 11ZM19.5828 3.948C19.2158 3.354 18.5798 3 17.8818 3H5.0818L4.4648 0.737C4.3458 0.302 3.9508 0 3.4998 0H1.4998C0.946802 0 0.499802 0.448 0.499802 1C0.499802 1.552 0.946802 2 1.4998 2H2.7358L5.5348 12.263C5.6538 12.698 6.0488 13 6.4998 13H15.4998C15.8788 13 16.2248 12.786 16.3948 12.447L19.6708 5.894C19.9838 5.269 19.9498 4.542 19.5828 3.948ZM6 15C5.172 15 4.5 15.671 4.5 16.5C4.5 17.329 5.172 18 6 18C6.828 18 7.5 17.329 7.5 16.5C7.5 15.671 6.828 15 6 15ZM14.5 16.5C14.5 15.671 15.172 15 16 15C16.828 15 17.5 15.671 17.5 16.5C17.5 17.329 16.828 18 16 18C15.172 18 14.5 17.329 14.5 16.5Z" fill="#ffffff"/>
</svg>
