<svg width="20" height="18" viewBox="0 0 20 18" fill="none" xmlns="http://www.w3.org/2000/svg">
<path fill-rule="evenodd" clip-rule="evenodd" d="M9.99971 17.8584C9.73471 17.8584 9.47971 17.7534 9.29271 17.5644L1.52471 9.7844C-0.511289 7.7444 -0.511289 4.4254 1.52471 2.3854C2.50871 1.4014 3.82071 0.858398 5.21971 0.858398C6.61871 0.858398 7.93171 1.4014 8.91471 2.3854L9.99971 3.4724L11.0847 2.3864C12.0687 1.4014 13.3807 0.858398 14.7807 0.858398C16.1787 0.858398 17.4917 1.4014 18.4747 2.3854C20.5117 4.4254 20.5117 7.7444 18.4757 9.7844L10.7077 17.5654C10.5197 17.7534 10.2657 17.8584 9.99971 17.8584Z" fill="#FF3D71"/>
</svg>
