<svg width="14" height="14" viewBox="0 0 14 14" fill="none" xmlns="http://www.w3.org/2000/svg">
<path fill-rule="evenodd" clip-rule="evenodd" d="M6.33333 4.33377C6.33333 3.96577 6.632 3.6671 7 3.6671C7.368 3.6671 7.66666 3.96577 7.66666 4.33377C7.66666 4.70177 7.368 5.00044 7 5.00044C6.632 5.00044 6.33333 4.70177 6.33333 4.33377ZM6.33333 6.33377C6.33333 5.96577 6.632 5.6671 7 5.6671C7.368 5.6671 7.66666 5.96577 7.66666 6.33377V9.6671C7.66666 10.0351 7.368 10.3338 7 10.3338C6.632 10.3338 6.33333 10.0351 6.33333 9.6671V6.33377ZM6.99999 12.3338C4.05933 12.3338 1.66666 9.9411 1.66666 7.00044C1.66666 4.05977 4.05933 1.6671 6.99999 1.6671C9.94066 1.6671 12.3333 4.05977 12.3333 7.00044C12.3333 9.9411 9.94066 12.3338 6.99999 12.3338ZM7 0.333771C3.318 0.333771 0.333328 3.31844 0.333328 7.00044C0.333328 10.6824 3.318 13.6671 7 13.6671C10.6813 13.6671 13.6667 10.6824 13.6667 7.00044C13.6667 3.31844 10.6813 0.333771 7 0.333771Z" fill="#828EAD"/>
</svg>
