<svg width="12" height="14" viewBox="0 0 12 14" fill="none" xmlns="http://www.w3.org/2000/svg">
<path fill-rule="evenodd" clip-rule="evenodd" d="M9.62954 12.3338H2.3702C2.1662 12.3338 2.0002 12.1844 2.0002 12.0004V2.00044C2.0002 1.81644 2.1662 1.6671 2.3702 1.6671H5.33354V4.43377C5.33354 5.48177 6.14487 6.33377 7.14287 6.33377H10.0002V12.0004C10.0002 12.1844 9.83354 12.3338 9.62954 12.3338ZM9.7662 5.00044H7.14287C6.8802 5.00044 6.66687 4.74644 6.66687 4.43377V1.6671H6.74154L9.7662 5.00044ZM11.1602 4.55244L7.53087 0.552437C7.40487 0.413104 7.22554 0.333771 7.03687 0.333771H2.3702C1.43087 0.333771 0.66687 1.08177 0.66687 2.00044V12.0004C0.66687 12.9191 1.43087 13.6671 2.3702 13.6671H9.62954C10.5689 13.6671 11.3335 12.9191 11.3335 12.0004V5.00044C11.3335 4.83444 11.2715 4.6751 11.1602 4.55244Z" fill="#828EAD"/>
</svg>
