<svg width="14" height="10" viewBox="0 0 14 10" fill="none" xmlns="http://www.w3.org/2000/svg">
<path fill-rule="evenodd" clip-rule="evenodd" d="M12.3333 6.7335L10.4607 5.00016L12.3333 3.2675V6.7335ZM9.00001 7.66683C9.00001 8.03483 8.70134 8.3335 8.33334 8.3335H2.33334C1.96534 8.3335 1.66668 8.03483 1.66668 7.66683V2.3335C1.66668 1.96616 1.96534 1.66683 2.33334 1.66683H8.33334C8.70134 1.66683 9.00001 1.96616 9.00001 2.3335V7.66683ZM13.008 1.76416C12.5907 1.58216 12.1067 1.6615 11.774 1.96816L10.3333 3.3015V2.3335C10.3333 1.23083 9.43601 0.333496 8.33334 0.333496H2.33334C1.23068 0.333496 0.333344 1.23083 0.333344 2.3335V7.66683C0.333344 8.77016 1.23068 9.66683 2.33334 9.66683H8.33334C9.43601 9.66683 10.3333 8.77016 10.3333 7.66683V6.6995L11.774 8.03216C11.9873 8.23016 12.264 8.3335 12.546 8.3335C12.702 8.3335 12.8587 8.30216 13.008 8.23683C13.414 8.0595 13.6667 7.68016 13.6667 7.2475V2.7535C13.6667 2.32083 13.414 1.9415 13.008 1.76416Z" fill="#828EAD"/>
</svg>
