<svg width="14" height="10" viewBox="0 0 14 10" fill="none" xmlns="http://www.w3.org/2000/svg">
<path d="M13.3864 1.72445C13.2348 1.17965 12.7803 0.749541 12.2045 0.599004C11.1667 0.333771 7 0.333771 7 0.333771C7 0.333771 2.83333 0.333771 1.78788 0.599004C1.21212 0.742373 0.76515 1.17248 0.606059 1.72445C0.333332 2.7137 0.333332 4.77822 0.333332 4.77822C0.333332 4.77822 0.333332 6.84273 0.613635 7.83198C0.76515 8.37678 1.2197 8.80689 1.79545 8.95743C2.83333 9.22266 7 9.22266 7 9.22266C7 9.22266 11.1667 9.22266 12.2121 8.95743C12.7879 8.81406 13.2348 8.38395 13.3939 7.83198C13.6667 6.84273 13.6667 4.77822 13.6667 4.77822C13.6667 4.77822 13.6667 2.7137 13.3864 1.72445ZM5.63636 6.65635V2.90008L9.12121 4.77822L5.63636 6.65635Z" fill="#1551E5"/>
</svg>
