<svg width="12" height="12" viewBox="0 0 12 12" fill="none" xmlns="http://www.w3.org/2000/svg">
<path fill-rule="evenodd" clip-rule="evenodd" d="M11.1598 0.840443C10.9284 0.608443 10.5531 0.608443 10.3218 0.840443L0.840443 10.3218C0.724443 10.4378 0.666443 10.5891 0.666443 10.7411C0.666443 10.8924 0.724443 11.0444 0.840443 11.1598C1.07178 11.3911 1.44644 11.3911 1.67844 11.1598L11.1598 1.67844C11.3911 1.44644 11.3911 1.07178 11.1598 0.840443ZM8.66664 10.6666C8.11531 10.6666 7.66664 10.218 7.66664 9.66664C7.66664 9.11531 8.11531 8.66664 8.66664 8.66664C9.21798 8.66664 9.66664 9.11531 9.66664 9.66664C9.66664 10.218 9.21798 10.6666 8.66664 10.6666ZM8.66664 7.33331C7.37998 7.33331 6.33331 8.37998 6.33331 9.66664C6.33331 10.9533 7.37998 12 8.66664 12C9.95331 12 11 10.9533 11 9.66664C11 8.37998 9.95331 7.33331 8.66664 7.33331ZM3.33331 1.99998C3.88464 1.99998 4.33331 2.44864 4.33331 2.99998C4.33331 3.55131 3.88464 3.99998 3.33331 3.99998C2.78198 3.99998 2.33331 3.55131 2.33331 2.99998C2.33331 2.44864 2.78198 1.99998 3.33331 1.99998ZM3.33331 5.33331C4.61998 5.33331 5.66664 4.28664 5.66664 2.99998C5.66664 1.71331 4.61998 0.666643 3.33331 0.666643C2.04664 0.666643 0.999976 1.71331 0.999976 2.99998C0.999976 4.28664 2.04664 5.33331 3.33331 5.33331Z" fill="#1551E5"/>
</svg>
