<svg width="28" height="23" viewBox="0 0 28 23" fill="none" xmlns="http://www.w3.org/2000/svg">
<path fill-rule="evenodd" clip-rule="evenodd" d="M7.62627 3.00004C6.47427 3.00004 5.39427 3.44537 4.58627 4.25471C2.90894 5.93471 2.90894 8.66937 4.5876 10.352L13.9996 19.78L23.4129 10.352C25.0916 8.66937 25.0916 5.93471 23.4129 4.25471C21.7969 2.63471 18.9489 2.63737 17.3329 4.25471L14.9436 6.64804C14.4423 7.15071 13.5569 7.15071 13.0556 6.64804L10.6663 4.25337C9.85827 3.44537 8.7796 3.00004 7.62627 3.00004ZM13.9996 23C13.6463 23 13.3063 22.86 13.0569 22.608L2.6996 12.2347C-0.015062 9.51471 -0.015062 5.08937 2.6996 2.36937C4.0116 1.05737 5.76094 0.333374 7.62627 0.333374C9.49161 0.333374 11.2423 1.05737 12.5529 2.36937L13.9996 3.81871L15.4463 2.37071C16.7583 1.05737 18.5076 0.333374 20.3743 0.333374C22.2383 0.333374 23.9889 1.05737 25.2996 2.36937C28.0156 5.08937 28.0156 9.51471 25.3009 12.2347L14.9436 22.6094C14.6929 22.86 14.3543 23 13.9996 23Z" fill="#071435"/>
</svg>
