<svg width="24" height="28" viewBox="0 0 24 28" fill="none" xmlns="http://www.w3.org/2000/svg">
<path fill-rule="evenodd" clip-rule="evenodd" d="M3.3528 19.3334L4.92614 17.7574C5.43014 17.2534 5.70747 16.584 5.70747 15.872V9.63602C5.70747 7.82669 6.49414 6.09736 7.86747 4.89469C9.25147 3.68136 11.0141 3.14802 12.8501 3.38936C15.9528 3.80136 18.2928 6.60669 18.2928 9.91602V15.872C18.2928 16.584 18.5701 17.2534 19.0728 17.756L20.6475 19.3334H3.3528ZM14.6661 22.4547C14.6661 23.6534 13.4448 24.6667 11.9995 24.6667C10.5541 24.6667 9.3328 23.6534 9.3328 22.4547V22H14.6661V22.4547ZM23.3608 18.2774L20.9595 15.872V9.91602C20.9595 5.27469 17.6235 1.33202 13.1995 0.746688C10.6368 0.405355 8.05014 1.18802 6.11014 2.88935C4.15814 4.59869 3.0408 7.05735 3.0408 9.63602L3.03947 15.872L0.638137 18.2774C0.0128039 18.904 -0.172529 19.836 0.166137 20.6534C0.506137 21.472 1.2968 22 2.18214 22H6.66614V22.4547C6.66614 25.1454 9.05814 27.3334 11.9995 27.3334C14.9408 27.3334 17.3328 25.1454 17.3328 22.4547V22H21.8168C22.7021 22 23.4915 21.472 23.8301 20.6547C24.1701 19.836 23.9861 18.9027 23.3608 18.2774Z" fill="#1551E5"/>
</svg>
